<svg width="1232" height="490" viewBox="0 0 1232 490" fill="none" xmlns="http://www.w3.org/2000/svg">
<path d="M0 69.904V0H134.105V490H59.9605V69.904H0Z" fill="#F5ECD7"/>
<path d="M252.763 232.75C208.061 210.399 185.711 175.154 185.711 127.013C185.711 103.803 191.513 82.5263 203.118 63.1842C214.724 43.8421 232.132 28.5833 255.342 17.4079C278.553 5.80263 306.921 0 340.447 0C373.544 0 401.697 5.80263 424.908 17.4079C448.548 28.5833 466.171 43.8421 477.776 63.1842C489.382 82.5263 495.184 103.803 495.184 127.013C495.184 151.083 488.952 172.36 476.487 190.842C464.452 208.895 448.333 222.864 428.132 232.75C452.632 241.776 471.974 256.605 486.158 277.237C500.342 297.439 507.434 321.294 507.434 348.803C507.434 376.741 500.342 401.456 486.158 422.947C471.974 444.439 452.202 460.987 426.842 472.592C401.482 484.197 372.684 490 340.447 490C308.211 490 279.412 484.197 254.053 472.592C229.123 460.987 209.566 444.439 195.382 422.947C181.197 401.456 174.105 376.741 174.105 348.803C174.105 320.864 181.197 296.794 195.382 276.592C209.566 256.39 228.693 241.776 252.763 232.75ZM424.908 136.039C424.908 111.969 417.386 93.4868 402.342 80.5921C387.298 67.6974 366.667 61.25 340.447 61.25C314.658 61.25 294.241 67.6974 279.197 80.5921C264.154 93.4868 256.632 112.184 256.632 136.684C256.632 158.175 264.368 175.798 279.842 189.553C295.746 202.877 315.947 209.539 340.447 209.539C364.947 209.539 385.149 202.662 401.053 188.908C416.956 175.154 424.908 157.531 424.908 136.039ZM340.447 264.987C312.079 264.987 288.868 272.079 270.816 286.263C253.193 300.018 244.382 320.004 244.382 346.224C244.382 370.724 252.978 390.711 270.171 406.184C287.364 421.228 310.789 428.75 340.447 428.75C369.675 428.75 392.671 421.013 409.434 405.539C426.627 390.066 435.224 370.294 435.224 346.224C435.224 320.434 426.412 300.447 408.789 286.263C391.596 272.079 368.816 264.987 340.447 264.987Z" fill="#F5ECD7"/>
<path d="M841.434 67.0314H625.447V200.424C634.474 187.912 647.798 177.41 665.421 168.919C683.474 160.429 702.601 156.183 722.803 156.183C758.908 156.183 788.136 164.227 810.487 180.315C833.268 196.402 849.386 216.735 858.842 241.313C868.728 265.891 873.671 291.81 873.671 319.07C873.671 352.139 867.439 381.632 854.974 407.551C842.939 433.023 824.671 453.133 800.171 467.88C776.101 482.627 746.443 490 711.197 490C664.346 490 626.737 477.934 598.368 453.803C570 429.672 553.022 397.72 547.434 357.948H619C623.728 378.951 634.259 395.709 650.592 408.222C666.925 420.287 687.342 426.32 711.842 426.32C742.36 426.32 765.14 416.712 780.184 397.497C795.658 378.281 803.395 352.809 803.395 321.081C803.395 288.906 795.658 264.327 780.184 247.346C764.711 229.918 741.93 221.204 711.842 221.204C690.781 221.204 672.943 226.79 658.329 237.962C644.145 248.687 633.829 263.434 627.382 282.202H557.75V0H841.434V67.0314Z" fill="#F5ECD7"/>
<path d="M994.263 360.43C998.561 382.353 1007.8 399.016 1021.99 410.416C1036.17 421.817 1055.3 427.517 1079.37 427.517C1109.89 427.517 1132.24 415.239 1146.42 390.685C1160.61 366.13 1167.7 324.255 1167.7 265.06C1157.38 279.969 1142.77 291.588 1123.86 299.919C1105.37 307.812 1085.17 311.758 1063.25 311.758C1035.31 311.758 1009.95 306.058 987.171 294.658C964.39 282.819 946.338 265.499 933.013 242.698C920.118 219.459 913.671 191.396 913.671 158.51C913.671 110.277 927.425 71.9105 954.934 43.4094C982.873 14.4698 1021.13 0 1069.7 0C1128.15 0 1169.63 19.9508 1194.13 59.8524C1219.06 99.3155 1231.53 160.045 1231.53 242.04C1231.53 298.604 1226.8 344.864 1217.34 380.819C1208.32 416.774 1192.41 443.96 1169.63 462.376C1146.85 480.792 1115.26 490 1074.86 490C1028.86 490 993.403 477.723 968.474 453.168C943.544 428.613 929.575 397.7 926.566 360.43H994.263ZM1076.14 248.617C1101.93 248.617 1122.14 240.506 1136.75 224.282C1151.79 207.62 1159.32 185.696 1159.32 158.51C1159.32 128.255 1151.36 104.796 1135.46 88.1342C1119.99 71.0336 1098.71 62.4832 1071.63 62.4832C1044.55 62.4832 1023.06 71.2528 1007.16 88.792C991.684 105.893 983.947 128.474 983.947 156.537C983.947 183.284 991.469 205.427 1006.51 222.966C1021.99 240.067 1045.2 248.617 1076.14 248.617Z" fill="#F5ECD7"/>
</svg>
