<svg width="1233" height="490" viewBox="0 0 1233 490" fill="none" xmlns="http://www.w3.org/2000/svg">
<path d="M0 69.904V0H134.232V490H60.0174V69.904H0Z" fill="#F5ECD7"/>
<path d="M254.901 360.43C259.203 382.353 268.453 399.016 282.651 410.416C296.848 421.817 315.994 427.517 340.087 427.517C370.633 427.517 393.005 415.239 407.203 390.685C421.401 366.13 428.499 324.255 428.499 265.06C418.174 279.969 403.546 291.588 384.616 299.919C366.116 307.812 345.895 311.758 323.953 311.758C295.988 311.758 270.604 306.058 247.802 294.658C225 282.819 206.93 265.499 193.593 242.698C180.686 219.459 174.232 191.396 174.232 158.51C174.232 110.277 188 71.9105 215.535 43.4094C243.5 14.4698 281.79 0 330.407 0C388.918 0 430.435 19.9508 454.959 59.8524C479.912 99.3155 492.389 160.045 492.389 242.04C492.389 298.604 487.656 344.864 478.191 380.819C469.156 416.774 453.238 443.96 430.435 462.376C407.633 480.792 376.011 490 335.569 490C289.535 490 254.04 477.723 229.087 453.168C204.133 428.613 190.151 397.7 187.139 360.43H254.901ZM336.86 248.617C362.674 248.617 382.895 240.506 397.523 224.282C412.581 207.62 420.11 185.696 420.11 158.51C420.11 128.255 412.151 104.796 396.232 88.1342C380.744 71.0336 359.447 62.4832 332.343 62.4832C305.238 62.4832 283.726 71.2528 267.808 88.792C252.319 105.893 244.575 128.474 244.575 156.537C244.575 183.284 252.104 205.427 267.162 222.966C282.651 240.067 305.883 248.617 336.86 248.617Z" fill="#F5ECD7"/>
<path d="M826.668 67.0314H610.476V200.424C619.511 187.912 632.848 177.41 650.488 168.919C668.557 160.429 687.703 156.183 707.924 156.183C744.063 156.183 773.319 164.227 795.691 180.315C818.493 196.402 834.627 216.735 844.092 241.313C853.987 265.891 858.935 291.81 858.935 319.07C858.935 352.139 852.697 381.632 840.22 407.551C828.173 433.023 809.888 453.133 785.365 467.88C761.272 482.627 731.586 490 696.307 490C649.412 490 611.767 477.934 583.371 453.803C554.976 429.672 537.982 397.72 532.389 357.948H604.023C608.755 378.951 619.296 395.709 635.645 408.222C651.993 420.287 672.429 426.32 696.953 426.32C727.499 426.32 750.301 416.712 765.36 397.497C780.848 378.281 788.592 352.809 788.592 321.081C788.592 288.906 780.848 264.327 765.36 247.346C749.871 229.918 727.069 221.204 696.953 221.204C675.871 221.204 658.017 226.79 643.389 237.962C629.191 248.687 618.866 263.434 612.412 282.202H542.714V0H826.668V67.0314Z" fill="#F5ECD7"/>
<path d="M977.668 232.75C932.923 210.399 910.551 175.154 910.551 127.013C910.551 103.803 916.359 82.5263 927.976 63.1842C939.592 43.8421 957.016 28.5833 980.249 17.4079C1003.48 5.80263 1031.88 0 1065.43 0C1098.56 0 1126.74 5.80263 1149.98 17.4079C1173.64 28.5833 1191.28 43.8421 1202.89 63.1842C1214.51 82.5263 1220.32 103.803 1220.32 127.013C1220.32 151.083 1214.08 172.36 1201.6 190.842C1189.56 208.895 1173.42 222.864 1153.2 232.75C1177.73 241.776 1197.09 256.605 1211.28 277.237C1225.48 297.439 1232.58 321.294 1232.58 348.803C1232.58 376.741 1225.48 401.456 1211.28 422.947C1197.09 444.439 1177.3 460.987 1151.91 472.592C1126.53 484.197 1097.7 490 1065.43 490C1033.17 490 1004.34 484.197 978.958 472.592C954.005 460.987 934.429 444.439 920.232 422.947C906.034 401.456 898.935 376.741 898.935 348.803C898.935 320.864 906.034 296.794 920.232 276.592C934.429 256.39 953.575 241.776 977.668 232.75ZM1149.98 136.039C1149.98 111.969 1142.45 93.4868 1127.39 80.5921C1112.33 67.6974 1091.68 61.25 1065.43 61.25C1039.62 61.25 1019.18 67.6974 1004.13 80.5921C989.069 93.4868 981.54 112.184 981.54 136.684C981.54 158.175 989.284 175.798 1004.77 189.553C1020.69 202.877 1040.91 209.539 1065.43 209.539C1089.96 209.539 1110.18 202.662 1126.1 188.908C1142.02 175.154 1149.98 157.531 1149.98 136.039ZM1065.43 264.987C1037.04 264.987 1013.81 272.079 995.737 286.263C978.098 300.018 969.278 320.004 969.278 346.224C969.278 370.724 977.883 390.711 995.092 406.184C1012.3 421.228 1035.75 428.75 1065.43 428.75C1094.69 428.75 1117.71 421.013 1134.49 405.539C1151.7 390.066 1160.3 370.294 1160.3 346.224C1160.3 320.434 1151.48 300.447 1133.84 286.263C1116.63 272.079 1093.83 264.987 1065.43 264.987Z" fill="#F5ECD7"/>
</svg>
