<svg width="1129" height="490" viewBox="0 0 1129 490" fill="none" xmlns="http://www.w3.org/2000/svg">
<path d="M48.3837 393.202C90.8024 356.263 124.163 325.999 148.465 302.411C173.209 278.379 193.756 253.456 210.105 227.643C226.454 201.83 234.628 176.017 234.628 150.204C234.628 123.501 228.221 102.584 215.407 87.4523C203.035 72.3206 183.372 64.7548 156.419 64.7548C130.349 64.7548 110.023 73.2107 95.4419 90.1226C81.3024 106.589 73.7907 128.842 72.907 156.88H0C1.32558 106.144 16.3489 67.4251 45.0698 40.7221C74.2326 13.574 111.128 0 155.756 0C203.919 0 241.477 13.3515 268.43 40.0545C295.826 66.7575 309.523 102.361 309.523 146.866C309.523 178.91 301.349 209.841 285 239.659C269.093 269.033 249.872 295.513 227.337 319.101C205.244 342.243 176.965 369.169 142.5 399.877L112.674 426.58H322.779V490H0.662792V434.591L48.3837 393.202Z" fill="#F5ECD7"/>
<path d="M370.779 243.676C370.779 167.306 383.593 107.712 409.221 64.8919C435.291 21.6306 479.919 0 543.105 0C606.291 0 650.698 21.6306 676.326 64.8919C702.396 107.712 715.431 167.306 715.431 243.676C715.431 320.928 702.396 381.405 676.326 425.108C650.698 468.369 606.291 490 543.105 490C479.919 490 435.291 468.369 409.221 425.108C383.593 381.405 370.779 320.928 370.779 243.676ZM641.198 243.676C641.198 207.919 638.768 177.68 633.907 152.959C629.489 128.239 620.21 108.153 606.07 92.7027C591.931 76.8108 570.942 68.8649 543.105 68.8649C515.268 68.8649 494.279 76.8108 480.14 92.7027C466 108.153 456.5 128.239 451.64 152.959C447.221 177.68 445.012 207.919 445.012 243.676C445.012 280.757 447.221 311.878 451.64 337.041C456.058 362.203 465.337 382.509 479.477 397.959C494.058 413.41 515.268 421.135 543.105 421.135C570.942 421.135 591.931 413.41 606.07 397.959C620.651 382.509 630.151 362.203 634.57 337.041C638.989 311.878 641.198 280.757 641.198 243.676Z" fill="#F5ECD7"/>
<path d="M763.431 69.904V0H901.291V490H825.07V69.904H763.431Z" fill="#F5ECD7"/>
<path d="M990.291 69.904V0H1128.15V490H1051.93V69.904H990.291Z" fill="#F5ECD7"/>
</svg>
