<svg width="1920" height="69" viewBox="0 0 1920 69" fill="none" xmlns="http://www.w3.org/2000/svg">
<g clip-path="url(#clip0_5742_6383)">
<path d="M2116 -55C2116 -38.7161 2086.09 -22.5916 2027.97 -7.54724C1969.85 7.49713 1884.66 21.1668 1777.27 32.6813C1669.88 44.1957 1542.39 53.3295 1402.07 59.5611C1261.76 65.7927 1111.37 69 959.5 69C807.626 69 657.24 65.7926 516.927 59.5611C376.614 53.3295 249.122 44.1957 141.731 32.6812C34.34 21.1668 -50.8472 7.49712 -108.967 -7.54726C-167.086 -22.5916 -197 -38.7161 -197 -55L959.5 -55H2116Z" fill="#F5ECD7"/>
</g>
<defs>
<clipPath id="clip0_5742_6383">
<rect width="1920" height="69" fill="white" transform="matrix(1 0 0 -1 0 69)"/>
</clipPath>
</defs>
</svg>
