<svg width="1920" height="68" viewBox="0 0 1920 68" fill="none" xmlns="http://www.w3.org/2000/svg">
<g clip-path="url(#clip0_5742_6380)">
<path d="M2116 124C2116 107.716 2086.09 91.5916 2027.97 76.5472C1969.85 61.5029 1884.66 47.8332 1777.27 36.3187C1669.88 24.8043 1542.39 15.6705 1402.07 9.43892C1261.76 3.20734 1111.37 -6.8654e-06 959.5 -6.1536e-06C807.626 -5.44181e-06 657.24 3.20736 516.927 9.43894C376.614 15.6705 249.122 24.8043 141.731 36.3188C34.34 47.8332 -50.8472 61.5029 -108.967 76.5473C-167.086 91.5916 -197 107.716 -197 124L959.5 124H2116Z" fill="#F5ECD7"/>
</g>
<defs>
<clipPath id="clip0_5742_6380">
<rect width="1920" height="69" fill="white"/>
</clipPath>
</defs>
</svg>
