<svg width="1920" height="1091" viewBox="0 0 1920 1091" fill="none" xmlns="http://www.w3.org/2000/svg">
<path d="M29.6075 205.538C18.8411 205.538 13.4579 202.578 13.4579 196.656V24.9327C13.4579 19.0112 18.8411 16.0504 29.6075 16.0504H37.6822C44.3215 16.0504 48.8972 16.5888 51.4094 17.6654C54.1009 18.742 56.0748 20.7159 57.3309 23.5869L84.2467 84.4168C85.6823 87.8262 86.8486 91.0561 87.7458 94.1065C88.643 97.157 89.4505 99.9383 90.1682 102.45C90.7066 99.9383 91.3346 97.157 92.0523 94.1065C92.9495 91.0561 94.2056 87.8262 95.8206 84.4168L123.006 23.5869C124.262 20.7159 126.146 18.742 128.658 17.6654C131.35 16.5888 136.015 16.0504 142.654 16.0504H150.729C161.495 16.0504 166.879 19.0112 166.879 24.9327V196.656C166.879 202.578 161.495 205.538 150.729 205.538H144.269C133.503 205.538 128.12 202.578 128.12 196.656V117.254C128.12 114.742 128.209 112.23 128.389 109.718C128.568 107.206 128.927 104.783 129.465 102.45L128.389 102.181C127.671 104.335 126.774 106.488 125.697 108.641C124.8 110.615 123.903 112.678 123.006 114.832L107.933 149.284C105.959 153.591 100.755 155.744 92.3215 155.744H87.7458C78.9533 155.744 73.5701 153.591 71.5963 149.284L57.3309 114.832C56.6131 112.858 55.8056 110.794 54.9084 108.641C54.0112 106.488 53.114 104.335 52.2168 102.181L51.1402 102.45C51.4991 104.783 51.7682 107.206 51.9477 109.718C52.1271 112.23 52.2168 114.742 52.2168 117.254V196.656C52.2168 202.578 46.8337 205.538 36.0673 205.538H29.6075ZM190.813 205.538C186.686 205.538 183.725 204.91 181.93 203.654C180.136 202.398 179.239 200.873 179.239 199.079C179.239 198.361 179.329 197.643 179.508 196.925C179.508 196.028 179.777 194.413 180.315 192.08L219.074 26.2785C219.972 22.3308 221.856 19.6392 224.727 18.2037C227.598 16.7682 231.366 16.0504 236.031 16.0504H256.218C261.243 16.0504 265.101 16.7682 267.792 18.2037C270.663 19.6392 272.547 22.3308 273.444 26.2785L312.203 192.08C312.742 194.413 313.011 196.028 313.011 196.925C313.19 197.643 313.28 198.361 313.28 199.079C313.28 200.873 312.383 202.398 310.588 203.654C308.794 204.91 305.833 205.538 301.706 205.538H287.441C283.672 205.538 280.443 205.09 277.751 204.193C275.059 203.295 273.444 201.411 272.906 198.54L266.985 167.049H225.534L219.613 198.54C219.074 201.411 217.459 203.295 214.768 204.193C212.076 205.09 208.936 205.538 205.347 205.538H190.813ZM241.953 77.1495L231.456 134.211H260.525L249.758 77.1495C249.041 73.7402 248.413 70.3308 247.874 66.9215C247.336 63.5121 246.887 60.1028 246.529 56.6934H245.183C244.824 60.1028 244.375 63.5121 243.837 66.9215C243.299 70.3308 242.671 73.7402 241.953 77.1495ZM341.874 205.538C331.108 205.538 325.724 202.578 325.724 196.656V24.9327C325.724 19.0112 331.108 16.0504 341.874 16.0504H351.294C362.061 16.0504 367.444 19.0112 367.444 24.9327V196.656C367.444 202.578 362.061 205.538 351.294 205.538H341.874ZM410.478 205.538C399.711 205.538 394.328 202.578 394.328 196.656V24.9327C394.328 19.0112 399.711 16.0504 410.478 16.0504H419.629C425.73 16.0504 430.216 16.6785 433.087 17.9345C435.958 19.1906 438.201 21.5233 439.816 24.9327L481.805 108.641C482.702 110.615 483.689 113.037 484.766 115.908C485.842 118.779 486.829 121.65 487.726 124.521L489.072 124.252C488.713 121.202 488.354 118.151 487.996 115.101C487.637 112.05 487.457 109 487.457 105.95V24.9327C487.457 19.0112 492.84 16.0504 503.607 16.0504H510.067C520.833 16.0504 526.216 19.0112 526.216 24.9327V196.656C526.216 202.578 520.833 205.538 510.067 205.538H500.915C494.994 205.538 490.597 204.91 487.726 203.654C484.855 202.398 482.612 200.065 480.997 196.656L438.74 111.602C437.842 109.628 436.855 107.206 435.779 104.335C434.702 101.464 433.715 98.5925 432.818 95.7215L431.472 95.9906C431.831 99.0411 432.19 102.092 432.549 105.142C432.908 108.193 433.087 111.243 433.087 114.293V196.656C433.087 202.578 427.704 205.538 416.938 205.538H410.478ZM606.039 205.538C595.272 205.538 589.889 202.578 589.889 196.656V24.9327C589.889 19.0112 595.272 16.0504 606.039 16.0504H615.459C626.226 16.0504 631.609 19.0112 631.609 24.9327V196.656C631.609 202.578 626.226 205.538 615.459 205.538H606.039ZM674.643 205.538C663.876 205.538 658.493 202.578 658.493 196.656V24.9327C658.493 19.0112 663.876 16.0504 674.643 16.0504H683.794C689.895 16.0504 694.381 16.6785 697.252 17.9345C700.123 19.1906 702.366 21.5233 703.981 24.9327L745.97 108.641C746.867 110.615 747.854 113.037 748.93 115.908C750.007 118.779 750.994 121.65 751.891 124.521L753.237 124.252C752.878 121.202 752.519 118.151 752.16 115.101C751.801 112.05 751.622 109 751.622 105.95V24.9327C751.622 19.0112 757.005 16.0504 767.772 16.0504H774.231C784.998 16.0504 790.381 19.0112 790.381 24.9327V196.656C790.381 202.578 784.998 205.538 774.231 205.538H765.08C759.158 205.538 754.762 204.91 751.891 203.654C749.02 202.398 746.777 200.065 745.162 196.656L702.904 111.602C702.007 109.628 701.02 107.206 699.944 104.335C698.867 101.464 697.88 98.5925 696.983 95.7215L695.637 95.9906C695.996 99.0411 696.355 102.092 696.714 105.142C697.072 108.193 697.252 111.243 697.252 114.293V196.656C697.252 202.578 691.869 205.538 681.102 205.538H674.643ZM886.429 207.153C860.948 207.153 842.466 199.348 830.982 183.736C819.498 167.946 813.756 143.452 813.756 110.256C813.756 78.1364 820.036 54.1813 832.597 38.3906C845.158 22.4205 864.716 14.4355 891.273 14.4355C897.016 14.4355 902.399 14.7944 907.423 15.5121C912.447 16.0504 916.126 16.6785 918.459 17.3962C921.688 18.2934 923.842 19.6392 924.918 21.4336C926.174 23.0486 926.802 25.2916 926.802 28.1626C926.802 31.5719 926.354 35.2504 925.457 39.1981C924.739 42.9663 923.662 46.286 922.227 49.157C920.791 51.8486 918.907 53.1944 916.574 53.1944C914.78 53.1944 911.819 52.8355 907.692 52.1177C903.565 51.2205 898.72 50.7719 893.158 50.7719C880.417 50.7719 871.176 55.5271 865.434 65.0374C859.692 74.3682 856.821 89.5308 856.821 110.525C856.821 125.778 857.898 137.89 860.051 146.862C862.204 155.834 865.793 162.293 870.817 166.241C875.842 170.009 882.571 171.893 891.004 171.893C893.158 171.893 895.849 171.714 899.079 171.355V129.366H884.814C879.43 129.366 876.739 124.88 876.739 115.908V108.103C876.739 99.1308 879.43 94.6448 884.814 94.6448H928.956C935.595 94.6448 938.915 98.2336 938.915 105.411V185.621C938.915 190.286 936.133 194.054 930.571 196.925C925.008 199.796 918.459 202.219 910.922 204.193C903.386 206.166 895.221 207.153 886.429 207.153ZM976.132 205.538C965.366 205.538 959.983 202.578 959.983 196.656V27.3551C959.983 20.1775 963.571 16.5888 970.749 16.5888H1016.51C1036.24 16.5888 1050.87 21.4336 1060.38 31.1233C1070.07 40.6336 1074.91 55.5271 1074.91 75.8037C1074.91 84.4168 1073.39 91.8635 1070.34 98.1439C1067.47 104.245 1063.79 109.09 1059.3 112.678C1054.82 116.088 1050.06 117.972 1045.04 118.331V119.407C1048.63 120.664 1051.95 123.086 1055 126.675C1058.23 130.084 1060.47 134.032 1061.72 138.518L1078.14 192.35C1078.86 194.503 1079.22 196.566 1079.22 198.54C1079.22 201.411 1078.05 203.295 1075.72 204.193C1073.57 205.09 1069.35 205.538 1063.07 205.538H1053.65C1049.34 205.538 1045.75 205 1042.88 203.923C1040.01 202.847 1038.22 200.873 1037.5 198.002L1025.12 148.207C1023.86 143.004 1021.98 139.505 1019.47 137.71C1017.13 135.916 1013.37 135.019 1008.16 135.019H1001.7V196.656C1001.7 202.578 996.319 205.538 985.553 205.538H976.132ZM1001.7 99.7589H1016.51C1023.32 99.7589 1027.99 97.8747 1030.5 94.1065C1033.19 90.3383 1034.54 84.2374 1034.54 75.8037C1034.54 67.3701 1033.19 61.2691 1030.5 57.5009C1027.99 53.7327 1023.32 51.8486 1016.51 51.8486H1001.7V99.7589ZM1104.52 205C1097.88 205 1094.56 201.411 1094.56 194.234V27.3551C1094.56 20.1775 1097.88 16.5888 1104.52 16.5888H1183.65C1189.04 16.5888 1191.73 21.0747 1191.73 30.0467V38.3906C1191.73 47.3626 1189.04 51.8486 1183.65 51.8486H1136.28V90.8766H1178.54C1183.74 90.8766 1186.35 95.3626 1186.35 104.335V112.678C1186.35 121.65 1183.74 126.136 1178.54 126.136H1136.28V169.74H1183.65C1189.04 169.74 1191.73 174.226 1191.73 183.198V191.542C1191.73 200.514 1189.04 205 1183.65 205H1104.52ZM1219.12 205C1212.48 205 1209.16 201.411 1209.16 194.234V27.3551C1209.16 20.1775 1212.48 16.5888 1219.12 16.5888H1267.57C1291.8 16.5888 1309.56 24.2149 1320.87 39.4673C1332.35 54.7196 1338.09 78.4953 1338.09 110.794C1338.09 143.093 1332.35 166.869 1320.87 182.121C1309.56 197.374 1291.8 205 1267.57 205H1219.12ZM1250.88 169.74H1267.84C1277.89 169.74 1284.98 165.164 1289.11 156.013C1293.41 146.862 1295.56 131.789 1295.56 110.794C1295.56 89.8 1293.41 74.7271 1289.11 65.5757C1284.98 56.4243 1277.89 51.8486 1267.84 51.8486H1250.88V169.74ZM1375.93 205.538C1365.16 205.538 1359.78 202.578 1359.78 196.656V24.9327C1359.78 19.0112 1365.16 16.0504 1375.93 16.0504H1385.35C1396.11 16.0504 1401.5 19.0112 1401.5 24.9327V196.656C1401.5 202.578 1396.11 205.538 1385.35 205.538H1375.93ZM1438.34 205C1431.7 205 1428.38 201.411 1428.38 194.234V27.3551C1428.38 20.1775 1431.7 16.5888 1438.34 16.5888H1517.47C1522.86 16.5888 1525.55 21.0747 1525.55 30.0467V38.3906C1525.55 47.3626 1522.86 51.8486 1517.47 51.8486H1470.1V90.8766H1512.36C1517.56 90.8766 1520.17 95.3626 1520.17 104.335V112.678C1520.17 121.65 1517.56 126.136 1512.36 126.136H1470.1V169.74H1517.47C1522.86 169.74 1525.55 174.226 1525.55 183.198V191.542C1525.55 200.514 1522.86 205 1517.47 205H1438.34ZM1559.13 205.538C1548.37 205.538 1542.98 202.578 1542.98 196.656V24.9327C1542.98 19.0112 1548.37 16.0504 1559.13 16.0504H1568.29C1574.39 16.0504 1578.87 16.6785 1581.74 17.9345C1584.61 19.1906 1586.86 21.5233 1588.47 24.9327L1630.46 108.641C1631.36 110.615 1632.35 113.037 1633.42 115.908C1634.5 118.779 1635.49 121.65 1636.38 124.521L1637.73 124.252C1637.37 121.202 1637.01 118.151 1636.65 115.101C1636.29 112.05 1636.11 109 1636.11 105.95V24.9327C1636.11 19.0112 1641.5 16.0504 1652.26 16.0504H1658.72C1669.49 16.0504 1674.87 19.0112 1674.87 24.9327V196.656C1674.87 202.578 1669.49 205.538 1658.72 205.538H1649.57C1643.65 205.538 1639.25 204.91 1636.38 203.654C1633.51 202.398 1631.27 200.065 1629.65 196.656L1587.4 111.602C1586.5 109.628 1585.51 107.206 1584.44 104.335C1583.36 101.464 1582.37 98.5925 1581.47 95.7215L1580.13 95.9906C1580.49 99.0411 1580.85 102.092 1581.21 105.142C1581.56 108.193 1581.74 111.243 1581.74 114.293V196.656C1581.74 202.578 1576.36 205.538 1565.59 205.538H1559.13ZM1742.66 205.538C1731.89 205.538 1726.51 202.578 1726.51 196.656V51.8486H1696.36C1690.98 51.8486 1688.29 47.3626 1688.29 38.3906V30.0467C1688.29 21.0747 1690.98 16.5888 1696.36 16.5888H1798.37C1803.76 16.5888 1806.45 21.0747 1806.45 30.0467V38.3906C1806.45 47.3626 1803.76 51.8486 1798.37 51.8486H1768.23V196.656C1768.23 202.578 1762.85 205.538 1752.08 205.538H1742.66ZM1857.98 207.153C1852.06 207.153 1845.96 206.346 1839.68 204.731C1833.58 203.116 1828.1 201.142 1823.26 198.809C1819.49 197.015 1816.26 195.041 1813.57 192.888C1810.88 190.555 1809.53 188.043 1809.53 185.351C1809.53 183.557 1809.89 180.865 1810.61 177.277C1811.33 173.508 1812.49 170.009 1814.11 166.779C1815.9 163.55 1818.06 161.935 1820.57 161.935C1822.18 161.935 1824.78 162.832 1828.37 164.626C1832.14 166.421 1836.45 168.215 1841.29 170.009C1846.32 171.804 1851.61 172.701 1857.17 172.701C1862.02 172.701 1866.5 171.535 1870.63 169.202C1874.94 166.69 1877.09 161.576 1877.09 153.86C1877.09 148.836 1875.83 144.708 1873.32 141.478C1870.99 138.249 1867.76 135.378 1863.63 132.865C1859.69 130.353 1855.38 127.841 1850.71 125.329C1842.46 120.664 1835.46 115.819 1829.72 110.794C1823.98 105.77 1819.58 99.9383 1816.53 93.299C1813.48 86.4804 1811.95 78.2262 1811.95 68.5364C1811.95 57.2317 1814.38 47.542 1819.22 39.4673C1824.25 31.3925 1830.98 25.2018 1839.41 20.8953C1848.02 16.5888 1857.71 14.4355 1868.48 14.4355C1874.58 14.4355 1880.86 15.1532 1887.32 16.5888C1893.78 18.0243 1899.25 20.1775 1903.74 23.0486C1905.35 24.1252 1907.06 25.471 1908.85 27.086C1910.65 28.7009 1911.54 30.6747 1911.54 33.0074C1911.54 35.5196 1911.18 38.6598 1910.47 42.428C1909.75 46.0168 1908.67 49.2467 1907.24 52.1177C1905.8 54.9888 1904.01 56.4243 1901.85 56.4243C1900.42 56.4243 1898.09 55.7962 1894.86 54.5402C1891.63 53.2841 1887.95 52.028 1883.82 50.7719C1879.69 49.5159 1875.66 48.8878 1871.71 48.8878C1865.97 48.8878 1861.57 49.8747 1858.52 51.8486C1855.65 53.8224 1853.67 56.1551 1852.6 58.8467C1851.7 61.3589 1851.25 63.7813 1851.25 66.114C1851.25 71.4972 1852.69 75.8037 1855.56 79.0336C1858.61 82.2635 1862.47 85.0448 1867.13 87.3776C1871.8 89.7103 1876.64 92.3121 1881.67 95.1832C1889.56 99.6691 1896.02 104.424 1901.05 109.449C1906.25 114.473 1910.11 120.305 1912.62 126.944C1915.31 133.404 1916.66 141.389 1916.66 150.899C1916.66 160.589 1914.59 169.74 1910.47 178.353C1906.34 186.787 1899.97 193.695 1891.36 199.079C1882.74 204.462 1871.62 207.153 1857.98 207.153Z" fill="#F2E8CF" fill-opacity="0.1"/>
<path d="M29.6075 424.538C18.8411 424.538 13.4579 421.578 13.4579 415.656V243.933C13.4579 238.011 18.8411 235.05 29.6075 235.05H37.6822C44.3215 235.05 48.8972 235.589 51.4094 236.665C54.1009 237.742 56.0748 239.716 57.3309 242.587L84.2467 303.417C85.6823 306.826 86.8486 310.056 87.7458 313.107C88.643 316.157 89.4505 318.938 90.1682 321.45C90.7066 318.938 91.3346 316.157 92.0523 313.107C92.9495 310.056 94.2056 306.826 95.8206 303.417L123.006 242.587C124.262 239.716 126.146 237.742 128.658 236.665C131.35 235.589 136.015 235.05 142.654 235.05H150.729C161.495 235.05 166.879 238.011 166.879 243.933V415.656C166.879 421.578 161.495 424.538 150.729 424.538H144.269C133.503 424.538 128.12 421.578 128.12 415.656V336.254C128.12 333.742 128.209 331.23 128.389 328.718C128.568 326.206 128.927 323.783 129.465 321.45L128.389 321.181C127.671 323.335 126.774 325.488 125.697 327.641C124.8 329.615 123.903 331.678 123.006 333.832L107.933 368.284C105.959 372.591 100.755 374.744 92.3215 374.744H87.7458C78.9533 374.744 73.5701 372.591 71.5963 368.284L57.3309 333.832C56.6131 331.858 55.8056 329.794 54.9084 327.641C54.0112 325.488 53.114 323.335 52.2168 321.181L51.1402 321.45C51.4991 323.783 51.7682 326.206 51.9477 328.718C52.1271 331.23 52.2168 333.742 52.2168 336.254V415.656C52.2168 421.578 46.8337 424.538 36.0673 424.538H29.6075ZM190.813 424.538C186.686 424.538 183.725 423.91 181.93 422.654C180.136 421.398 179.239 419.873 179.239 418.079C179.239 417.361 179.329 416.643 179.508 415.925C179.508 415.028 179.777 413.413 180.315 411.08L219.074 245.278C219.972 241.331 221.856 238.639 224.727 237.204C227.598 235.768 231.366 235.05 236.031 235.05H256.218C261.243 235.05 265.101 235.768 267.792 237.204C270.663 238.639 272.547 241.331 273.444 245.278L312.203 411.08C312.742 413.413 313.011 415.028 313.011 415.925C313.19 416.643 313.28 417.361 313.28 418.079C313.28 419.873 312.383 421.398 310.588 422.654C308.794 423.91 305.833 424.538 301.706 424.538H287.441C283.672 424.538 280.443 424.09 277.751 423.193C275.059 422.295 273.444 420.411 272.906 417.54L266.985 386.049H225.534L219.613 417.54C219.074 420.411 217.459 422.295 214.768 423.193C212.076 424.09 208.936 424.538 205.347 424.538H190.813ZM241.953 296.15L231.456 353.211H260.525L249.758 296.15C249.041 292.74 248.413 289.331 247.874 285.921C247.336 282.512 246.887 279.103 246.529 275.693H245.183C244.824 279.103 244.375 282.512 243.837 285.921C243.299 289.331 242.671 292.74 241.953 296.15ZM341.874 424.538C331.108 424.538 325.724 421.578 325.724 415.656V243.933C325.724 238.011 331.108 235.05 341.874 235.05H351.294C362.061 235.05 367.444 238.011 367.444 243.933V415.656C367.444 421.578 362.061 424.538 351.294 424.538H341.874ZM410.478 424.538C399.711 424.538 394.328 421.578 394.328 415.656V243.933C394.328 238.011 399.711 235.05 410.478 235.05H419.629C425.73 235.05 430.216 235.678 433.087 236.935C435.958 238.191 438.201 240.523 439.816 243.933L481.805 327.641C482.702 329.615 483.689 332.037 484.766 334.908C485.842 337.779 486.829 340.65 487.726 343.521L489.072 343.252C488.713 340.202 488.354 337.151 487.996 334.101C487.637 331.05 487.457 328 487.457 324.95V243.933C487.457 238.011 492.84 235.05 503.607 235.05H510.067C520.833 235.05 526.216 238.011 526.216 243.933V415.656C526.216 421.578 520.833 424.538 510.067 424.538H500.915C494.994 424.538 490.597 423.91 487.726 422.654C484.855 421.398 482.612 419.065 480.997 415.656L438.74 330.602C437.842 328.628 436.855 326.206 435.779 323.335C434.702 320.464 433.715 317.593 432.818 314.721L431.472 314.991C431.831 318.041 432.19 321.092 432.549 324.142C432.908 327.193 433.087 330.243 433.087 333.293V415.656C433.087 421.578 427.704 424.538 416.938 424.538H410.478ZM606.039 424.538C595.272 424.538 589.889 421.578 589.889 415.656V243.933C589.889 238.011 595.272 235.05 606.039 235.05H615.459C626.226 235.05 631.609 238.011 631.609 243.933V415.656C631.609 421.578 626.226 424.538 615.459 424.538H606.039ZM674.643 424.538C663.876 424.538 658.493 421.578 658.493 415.656V243.933C658.493 238.011 663.876 235.05 674.643 235.05H683.794C689.895 235.05 694.381 235.678 697.252 236.935C700.123 238.191 702.366 240.523 703.981 243.933L745.97 327.641C746.867 329.615 747.854 332.037 748.93 334.908C750.007 337.779 750.994 340.65 751.891 343.521L753.237 343.252C752.878 340.202 752.519 337.151 752.16 334.101C751.801 331.05 751.622 328 751.622 324.95V243.933C751.622 238.011 757.005 235.05 767.772 235.05H774.231C784.998 235.05 790.381 238.011 790.381 243.933V415.656C790.381 421.578 784.998 424.538 774.231 424.538H765.08C759.158 424.538 754.762 423.91 751.891 422.654C749.02 421.398 746.777 419.065 745.162 415.656L702.904 330.602C702.007 328.628 701.02 326.206 699.944 323.335C698.867 320.464 697.88 317.593 696.983 314.721L695.637 314.991C695.996 318.041 696.355 321.092 696.714 324.142C697.072 327.193 697.252 330.243 697.252 333.293V415.656C697.252 421.578 691.869 424.538 681.102 424.538H674.643ZM886.429 426.153C860.948 426.153 842.466 418.348 830.982 402.736C819.498 386.946 813.756 362.452 813.756 329.256C813.756 297.136 820.036 273.181 832.597 257.391C845.158 241.421 864.716 233.435 891.273 233.435C897.016 233.435 902.399 233.794 907.423 234.512C912.447 235.05 916.126 235.678 918.459 236.396C921.688 237.293 923.842 238.639 924.918 240.434C926.174 242.049 926.802 244.292 926.802 247.163C926.802 250.572 926.354 254.25 925.457 258.198C924.739 261.966 923.662 265.286 922.227 268.157C920.791 270.849 918.907 272.194 916.574 272.194C914.78 272.194 911.819 271.835 907.692 271.118C903.565 270.221 898.72 269.772 893.158 269.772C880.417 269.772 871.176 274.527 865.434 284.037C859.692 293.368 856.821 308.531 856.821 329.525C856.821 344.778 857.898 356.89 860.051 365.862C862.204 374.834 865.793 381.293 870.817 385.241C875.842 389.009 882.571 390.893 891.004 390.893C893.158 390.893 895.849 390.714 899.079 390.355V348.366H884.814C879.43 348.366 876.739 343.88 876.739 334.908V327.103C876.739 318.131 879.43 313.645 884.814 313.645H928.956C935.595 313.645 938.915 317.234 938.915 324.411V404.621C938.915 409.286 936.133 413.054 930.571 415.925C925.008 418.796 918.459 421.219 910.922 423.193C903.386 425.166 895.221 426.153 886.429 426.153ZM976.132 424.538C965.366 424.538 959.983 421.578 959.983 415.656V246.355C959.983 239.178 963.571 235.589 970.749 235.589H1016.51C1036.24 235.589 1050.87 240.434 1060.38 250.123C1070.07 259.634 1074.91 274.527 1074.91 294.804C1074.91 303.417 1073.39 310.864 1070.34 317.144C1067.47 323.245 1063.79 328.09 1059.3 331.678C1054.82 335.088 1050.06 336.972 1045.04 337.331V338.407C1048.63 339.664 1051.95 342.086 1055 345.675C1058.23 349.084 1060.47 353.032 1061.72 357.518L1078.14 411.35C1078.86 413.503 1079.22 415.566 1079.22 417.54C1079.22 420.411 1078.05 422.295 1075.72 423.193C1073.57 424.09 1069.35 424.538 1063.07 424.538H1053.65C1049.34 424.538 1045.75 424 1042.88 422.923C1040.01 421.847 1038.22 419.873 1037.5 417.002L1025.12 367.207C1023.86 362.004 1021.98 358.505 1019.47 356.71C1017.13 354.916 1013.37 354.019 1008.16 354.019H1001.7V415.656C1001.7 421.578 996.319 424.538 985.553 424.538H976.132ZM1001.7 318.759H1016.51C1023.32 318.759 1027.99 316.875 1030.5 313.107C1033.19 309.338 1034.54 303.237 1034.54 294.804C1034.54 286.37 1033.19 280.269 1030.5 276.501C1027.99 272.733 1023.32 270.849 1016.51 270.849H1001.7V318.759ZM1104.52 424C1097.88 424 1094.56 420.411 1094.56 413.234V246.355C1094.56 239.178 1097.88 235.589 1104.52 235.589H1183.65C1189.04 235.589 1191.73 240.075 1191.73 249.047V257.391C1191.73 266.363 1189.04 270.849 1183.65 270.849H1136.28V309.877H1178.54C1183.74 309.877 1186.35 314.363 1186.35 323.335V331.678C1186.35 340.65 1183.74 345.136 1178.54 345.136H1136.28V388.74H1183.65C1189.04 388.74 1191.73 393.226 1191.73 402.198V410.542C1191.73 419.514 1189.04 424 1183.65 424H1104.52ZM1219.12 424C1212.48 424 1209.16 420.411 1209.16 413.234V246.355C1209.16 239.178 1212.48 235.589 1219.12 235.589H1267.57C1291.8 235.589 1309.56 243.215 1320.87 258.467C1332.35 273.72 1338.09 297.495 1338.09 329.794C1338.09 362.093 1332.35 385.869 1320.87 401.121C1309.56 416.374 1291.8 424 1267.57 424H1219.12ZM1250.88 388.74H1267.84C1277.89 388.74 1284.98 384.164 1289.11 375.013C1293.41 365.862 1295.56 350.789 1295.56 329.794C1295.56 308.8 1293.41 293.727 1289.11 284.576C1284.98 275.424 1277.89 270.849 1267.84 270.849H1250.88V388.74ZM1375.93 424.538C1365.16 424.538 1359.78 421.578 1359.78 415.656V243.933C1359.78 238.011 1365.16 235.05 1375.93 235.05H1385.35C1396.11 235.05 1401.5 238.011 1401.5 243.933V415.656C1401.5 421.578 1396.11 424.538 1385.35 424.538H1375.93ZM1438.34 424C1431.7 424 1428.38 420.411 1428.38 413.234V246.355C1428.38 239.178 1431.7 235.589 1438.34 235.589H1517.47C1522.86 235.589 1525.55 240.075 1525.55 249.047V257.391C1525.55 266.363 1522.86 270.849 1517.47 270.849H1470.1V309.877H1512.36C1517.56 309.877 1520.17 314.363 1520.17 323.335V331.678C1520.17 340.65 1517.56 345.136 1512.36 345.136H1470.1V388.74H1517.47C1522.86 388.74 1525.55 393.226 1525.55 402.198V410.542C1525.55 419.514 1522.86 424 1517.47 424H1438.34ZM1559.13 424.538C1548.37 424.538 1542.98 421.578 1542.98 415.656V243.933C1542.98 238.011 1548.37 235.05 1559.13 235.05H1568.29C1574.39 235.05 1578.87 235.678 1581.74 236.935C1584.61 238.191 1586.86 240.523 1588.47 243.933L1630.46 327.641C1631.36 329.615 1632.35 332.037 1633.42 334.908C1634.5 337.779 1635.49 340.65 1636.38 343.521L1637.73 343.252C1637.37 340.202 1637.01 337.151 1636.65 334.101C1636.29 331.05 1636.11 328 1636.11 324.95V243.933C1636.11 238.011 1641.5 235.05 1652.26 235.05H1658.72C1669.49 235.05 1674.87 238.011 1674.87 243.933V415.656C1674.87 421.578 1669.49 424.538 1658.72 424.538H1649.57C1643.65 424.538 1639.25 423.91 1636.38 422.654C1633.51 421.398 1631.27 419.065 1629.65 415.656L1587.4 330.602C1586.5 328.628 1585.51 326.206 1584.44 323.335C1583.36 320.464 1582.37 317.593 1581.47 314.721L1580.13 314.991C1580.49 318.041 1580.85 321.092 1581.21 324.142C1581.56 327.193 1581.74 330.243 1581.74 333.293V415.656C1581.74 421.578 1576.36 424.538 1565.59 424.538H1559.13ZM1742.66 424.538C1731.89 424.538 1726.51 421.578 1726.51 415.656V270.849H1696.36C1690.98 270.849 1688.29 266.363 1688.29 257.391V249.047C1688.29 240.075 1690.98 235.589 1696.36 235.589H1798.37C1803.76 235.589 1806.45 240.075 1806.45 249.047V257.391C1806.45 266.363 1803.76 270.849 1798.37 270.849H1768.23V415.656C1768.23 421.578 1762.85 424.538 1752.08 424.538H1742.66ZM1857.98 426.153C1852.06 426.153 1845.96 425.346 1839.68 423.731C1833.58 422.116 1828.1 420.142 1823.26 417.809C1819.49 416.015 1816.26 414.041 1813.57 411.888C1810.88 409.555 1809.53 407.043 1809.53 404.351C1809.53 402.557 1809.89 399.865 1810.61 396.277C1811.33 392.508 1812.49 389.009 1814.11 385.779C1815.9 382.55 1818.06 380.935 1820.57 380.935C1822.18 380.935 1824.78 381.832 1828.37 383.626C1832.14 385.421 1836.45 387.215 1841.29 389.009C1846.32 390.804 1851.61 391.701 1857.17 391.701C1862.02 391.701 1866.5 390.535 1870.63 388.202C1874.94 385.69 1877.09 380.576 1877.09 372.86C1877.09 367.836 1875.83 363.708 1873.32 360.478C1870.99 357.249 1867.76 354.378 1863.63 351.865C1859.69 349.353 1855.38 346.841 1850.71 344.329C1842.46 339.664 1835.46 334.819 1829.72 329.794C1823.98 324.77 1819.58 318.938 1816.53 312.299C1813.48 305.48 1811.95 297.226 1811.95 287.536C1811.95 276.232 1814.38 266.542 1819.22 258.467C1824.25 250.393 1830.98 244.202 1839.41 239.895C1848.02 235.589 1857.71 233.435 1868.48 233.435C1874.58 233.435 1880.86 234.153 1887.32 235.589C1893.78 237.024 1899.25 239.178 1903.74 242.049C1905.35 243.125 1907.06 244.471 1908.85 246.086C1910.65 247.701 1911.54 249.675 1911.54 252.007C1911.54 254.52 1911.18 257.66 1910.47 261.428C1909.75 265.017 1908.67 268.247 1907.24 271.118C1905.8 273.989 1904.01 275.424 1901.85 275.424C1900.42 275.424 1898.09 274.796 1894.86 273.54C1891.63 272.284 1887.95 271.028 1883.82 269.772C1879.69 268.516 1875.66 267.888 1871.71 267.888C1865.97 267.888 1861.57 268.875 1858.52 270.849C1855.65 272.822 1853.67 275.155 1852.6 277.847C1851.7 280.359 1851.25 282.781 1851.25 285.114C1851.25 290.497 1852.69 294.804 1855.56 298.034C1858.61 301.264 1862.47 304.045 1867.13 306.378C1871.8 308.71 1876.64 311.312 1881.67 314.183C1889.56 318.669 1896.02 323.424 1901.05 328.449C1906.25 333.473 1910.11 339.305 1912.62 345.944C1915.31 352.404 1916.66 360.389 1916.66 369.899C1916.66 379.589 1914.59 388.74 1910.47 397.353C1906.34 405.787 1899.97 412.695 1891.36 418.079C1882.74 423.462 1871.62 426.153 1857.98 426.153Z" fill="#F2E8CF" fill-opacity="0.1"/>
<path d="M29.6075 643.538C18.8411 643.538 13.4579 640.578 13.4579 634.656V462.933C13.4579 457.011 18.8411 454.05 29.6075 454.05H37.6822C44.3215 454.05 48.8972 454.589 51.4094 455.665C54.1009 456.742 56.0748 458.716 57.3309 461.587L84.2467 522.417C85.6823 525.826 86.8486 529.056 87.7458 532.107C88.643 535.157 89.4505 537.938 90.1682 540.45C90.7066 537.938 91.3346 535.157 92.0523 532.107C92.9495 529.056 94.2056 525.826 95.8206 522.417L123.006 461.587C124.262 458.716 126.146 456.742 128.658 455.665C131.35 454.589 136.015 454.05 142.654 454.05H150.729C161.495 454.05 166.879 457.011 166.879 462.933V634.656C166.879 640.578 161.495 643.538 150.729 643.538H144.269C133.503 643.538 128.12 640.578 128.12 634.656V555.254C128.12 552.742 128.209 550.23 128.389 547.718C128.568 545.206 128.927 542.783 129.465 540.45L128.389 540.181C127.671 542.335 126.774 544.488 125.697 546.641C124.8 548.615 123.903 550.678 123.006 552.832L107.933 587.284C105.959 591.591 100.755 593.744 92.3215 593.744H87.7458C78.9533 593.744 73.5701 591.591 71.5963 587.284L57.3309 552.832C56.6131 550.858 55.8056 548.794 54.9084 546.641C54.0112 544.488 53.114 542.335 52.2168 540.181L51.1402 540.45C51.4991 542.783 51.7682 545.206 51.9477 547.718C52.1271 550.23 52.2168 552.742 52.2168 555.254V634.656C52.2168 640.578 46.8337 643.538 36.0673 643.538H29.6075ZM190.813 643.538C186.686 643.538 183.725 642.91 181.93 641.654C180.136 640.398 179.239 638.873 179.239 637.079C179.239 636.361 179.329 635.643 179.508 634.925C179.508 634.028 179.777 632.413 180.315 630.08L219.074 464.278C219.972 460.331 221.856 457.639 224.727 456.204C227.598 454.768 231.366 454.05 236.031 454.05H256.218C261.243 454.05 265.101 454.768 267.792 456.204C270.663 457.639 272.547 460.331 273.444 464.278L312.203 630.08C312.742 632.413 313.011 634.028 313.011 634.925C313.19 635.643 313.28 636.361 313.28 637.079C313.28 638.873 312.383 640.398 310.588 641.654C308.794 642.91 305.833 643.538 301.706 643.538H287.441C283.672 643.538 280.443 643.09 277.751 642.193C275.059 641.295 273.444 639.411 272.906 636.54L266.985 605.049H225.534L219.613 636.54C219.074 639.411 217.459 641.295 214.768 642.193C212.076 643.09 208.936 643.538 205.347 643.538H190.813ZM241.953 515.15L231.456 572.211H260.525L249.758 515.15C249.041 511.74 248.413 508.331 247.874 504.921C247.336 501.512 246.887 498.103 246.529 494.693H245.183C244.824 498.103 244.375 501.512 243.837 504.921C243.299 508.331 242.671 511.74 241.953 515.15ZM341.874 643.538C331.108 643.538 325.724 640.578 325.724 634.656V462.933C325.724 457.011 331.108 454.05 341.874 454.05H351.294C362.061 454.05 367.444 457.011 367.444 462.933V634.656C367.444 640.578 362.061 643.538 351.294 643.538H341.874ZM410.478 643.538C399.711 643.538 394.328 640.578 394.328 634.656V462.933C394.328 457.011 399.711 454.05 410.478 454.05H419.629C425.73 454.05 430.216 454.678 433.087 455.935C435.958 457.191 438.201 459.523 439.816 462.933L481.805 546.641C482.702 548.615 483.689 551.037 484.766 553.908C485.842 556.779 486.829 559.65 487.726 562.521L489.072 562.252C488.713 559.202 488.354 556.151 487.996 553.101C487.637 550.05 487.457 547 487.457 543.95V462.933C487.457 457.011 492.84 454.05 503.607 454.05H510.067C520.833 454.05 526.216 457.011 526.216 462.933V634.656C526.216 640.578 520.833 643.538 510.067 643.538H500.915C494.994 643.538 490.597 642.91 487.726 641.654C484.855 640.398 482.612 638.065 480.997 634.656L438.74 549.602C437.842 547.628 436.855 545.206 435.779 542.335C434.702 539.464 433.715 536.593 432.818 533.721L431.472 533.991C431.831 537.041 432.19 540.092 432.549 543.142C432.908 546.193 433.087 549.243 433.087 552.293V634.656C433.087 640.578 427.704 643.538 416.938 643.538H410.478ZM606.039 643.538C595.272 643.538 589.889 640.578 589.889 634.656V462.933C589.889 457.011 595.272 454.05 606.039 454.05H615.459C626.226 454.05 631.609 457.011 631.609 462.933V634.656C631.609 640.578 626.226 643.538 615.459 643.538H606.039ZM674.643 643.538C663.876 643.538 658.493 640.578 658.493 634.656V462.933C658.493 457.011 663.876 454.05 674.643 454.05H683.794C689.895 454.05 694.381 454.678 697.252 455.935C700.123 457.191 702.366 459.523 703.981 462.933L745.97 546.641C746.867 548.615 747.854 551.037 748.93 553.908C750.007 556.779 750.994 559.65 751.891 562.521L753.237 562.252C752.878 559.202 752.519 556.151 752.16 553.101C751.801 550.05 751.622 547 751.622 543.95V462.933C751.622 457.011 757.005 454.05 767.772 454.05H774.231C784.998 454.05 790.381 457.011 790.381 462.933V634.656C790.381 640.578 784.998 643.538 774.231 643.538H765.08C759.158 643.538 754.762 642.91 751.891 641.654C749.02 640.398 746.777 638.065 745.162 634.656L702.904 549.602C702.007 547.628 701.02 545.206 699.944 542.335C698.867 539.464 697.88 536.593 696.983 533.721L695.637 533.991C695.996 537.041 696.355 540.092 696.714 543.142C697.072 546.193 697.252 549.243 697.252 552.293V634.656C697.252 640.578 691.869 643.538 681.102 643.538H674.643ZM886.429 645.153C860.948 645.153 842.466 637.348 830.982 621.736C819.498 605.946 813.756 581.452 813.756 548.256C813.756 516.136 820.036 492.181 832.597 476.391C845.158 460.421 864.716 452.435 891.273 452.435C897.016 452.435 902.399 452.794 907.423 453.512C912.447 454.05 916.126 454.678 918.459 455.396C921.688 456.293 923.842 457.639 924.918 459.434C926.174 461.049 926.802 463.292 926.802 466.163C926.802 469.572 926.354 473.25 925.457 477.198C924.739 480.966 923.662 484.286 922.227 487.157C920.791 489.849 918.907 491.194 916.574 491.194C914.78 491.194 911.819 490.835 907.692 490.118C903.565 489.221 898.72 488.772 893.158 488.772C880.417 488.772 871.176 493.527 865.434 503.037C859.692 512.368 856.821 527.531 856.821 548.525C856.821 563.778 857.898 575.89 860.051 584.862C862.204 593.834 865.793 600.293 870.817 604.241C875.842 608.009 882.571 609.893 891.004 609.893C893.158 609.893 895.849 609.714 899.079 609.355V567.366H884.814C879.43 567.366 876.739 562.88 876.739 553.908V546.103C876.739 537.131 879.43 532.645 884.814 532.645H928.956C935.595 532.645 938.915 536.234 938.915 543.411V623.621C938.915 628.286 936.133 632.054 930.571 634.925C925.008 637.796 918.459 640.219 910.922 642.193C903.386 644.166 895.221 645.153 886.429 645.153ZM976.132 643.538C965.366 643.538 959.983 640.578 959.983 634.656V465.355C959.983 458.178 963.571 454.589 970.749 454.589H1016.51C1036.24 454.589 1050.87 459.434 1060.38 469.123C1070.07 478.634 1074.91 493.527 1074.91 513.804C1074.91 522.417 1073.39 529.864 1070.34 536.144C1067.47 542.245 1063.79 547.09 1059.3 550.678C1054.82 554.088 1050.06 555.972 1045.04 556.331V557.407C1048.63 558.664 1051.95 561.086 1055 564.675C1058.23 568.084 1060.47 572.032 1061.72 576.518L1078.14 630.35C1078.86 632.503 1079.22 634.566 1079.22 636.54C1079.22 639.411 1078.05 641.295 1075.72 642.193C1073.57 643.09 1069.35 643.538 1063.07 643.538H1053.65C1049.34 643.538 1045.75 643 1042.88 641.923C1040.01 640.847 1038.22 638.873 1037.5 636.002L1025.12 586.207C1023.86 581.004 1021.98 577.505 1019.47 575.71C1017.13 573.916 1013.37 573.019 1008.16 573.019H1001.7V634.656C1001.7 640.578 996.319 643.538 985.553 643.538H976.132ZM1001.7 537.759H1016.51C1023.32 537.759 1027.99 535.875 1030.5 532.107C1033.19 528.338 1034.54 522.237 1034.54 513.804C1034.54 505.37 1033.19 499.269 1030.5 495.501C1027.99 491.733 1023.32 489.849 1016.51 489.849H1001.7V537.759ZM1104.52 643C1097.88 643 1094.56 639.411 1094.56 632.234V465.355C1094.56 458.178 1097.88 454.589 1104.52 454.589H1183.65C1189.04 454.589 1191.73 459.075 1191.73 468.047V476.391C1191.73 485.363 1189.04 489.849 1183.65 489.849H1136.28V528.877H1178.54C1183.74 528.877 1186.35 533.363 1186.35 542.335V550.678C1186.35 559.65 1183.74 564.136 1178.54 564.136H1136.28V607.74H1183.65C1189.04 607.74 1191.73 612.226 1191.73 621.198V629.542C1191.73 638.514 1189.04 643 1183.65 643H1104.52ZM1219.12 643C1212.48 643 1209.16 639.411 1209.16 632.234V465.355C1209.16 458.178 1212.48 454.589 1219.12 454.589H1267.57C1291.8 454.589 1309.56 462.215 1320.87 477.467C1332.35 492.72 1338.09 516.495 1338.09 548.794C1338.09 581.093 1332.35 604.869 1320.87 620.121C1309.56 635.374 1291.8 643 1267.57 643H1219.12ZM1250.88 607.74H1267.84C1277.89 607.74 1284.98 603.164 1289.11 594.013C1293.41 584.862 1295.56 569.789 1295.56 548.794C1295.56 527.8 1293.41 512.727 1289.11 503.576C1284.98 494.424 1277.89 489.849 1267.84 489.849H1250.88V607.74ZM1375.93 643.538C1365.16 643.538 1359.78 640.578 1359.78 634.656V462.933C1359.78 457.011 1365.16 454.05 1375.93 454.05H1385.35C1396.11 454.05 1401.5 457.011 1401.5 462.933V634.656C1401.5 640.578 1396.11 643.538 1385.35 643.538H1375.93ZM1438.34 643C1431.7 643 1428.38 639.411 1428.38 632.234V465.355C1428.38 458.178 1431.7 454.589 1438.34 454.589H1517.47C1522.86 454.589 1525.55 459.075 1525.55 468.047V476.391C1525.55 485.363 1522.86 489.849 1517.47 489.849H1470.1V528.877H1512.36C1517.56 528.877 1520.17 533.363 1520.17 542.335V550.678C1520.17 559.65 1517.56 564.136 1512.36 564.136H1470.1V607.74H1517.47C1522.86 607.74 1525.55 612.226 1525.55 621.198V629.542C1525.55 638.514 1522.86 643 1517.47 643H1438.34ZM1559.13 643.538C1548.37 643.538 1542.98 640.578 1542.98 634.656V462.933C1542.98 457.011 1548.37 454.05 1559.13 454.05H1568.29C1574.39 454.05 1578.87 454.678 1581.74 455.935C1584.61 457.191 1586.86 459.523 1588.47 462.933L1630.46 546.641C1631.36 548.615 1632.35 551.037 1633.42 553.908C1634.5 556.779 1635.49 559.65 1636.38 562.521L1637.73 562.252C1637.37 559.202 1637.01 556.151 1636.65 553.101C1636.29 550.05 1636.11 547 1636.11 543.95V462.933C1636.11 457.011 1641.5 454.05 1652.26 454.05H1658.72C1669.49 454.05 1674.87 457.011 1674.87 462.933V634.656C1674.87 640.578 1669.49 643.538 1658.72 643.538H1649.57C1643.65 643.538 1639.25 642.91 1636.38 641.654C1633.51 640.398 1631.27 638.065 1629.65 634.656L1587.4 549.602C1586.5 547.628 1585.51 545.206 1584.44 542.335C1583.36 539.464 1582.37 536.593 1581.47 533.721L1580.13 533.991C1580.49 537.041 1580.85 540.092 1581.21 543.142C1581.56 546.193 1581.74 549.243 1581.74 552.293V634.656C1581.74 640.578 1576.36 643.538 1565.59 643.538H1559.13ZM1742.66 643.538C1731.89 643.538 1726.51 640.578 1726.51 634.656V489.849H1696.36C1690.98 489.849 1688.29 485.363 1688.29 476.391V468.047C1688.29 459.075 1690.98 454.589 1696.36 454.589H1798.37C1803.76 454.589 1806.45 459.075 1806.45 468.047V476.391C1806.45 485.363 1803.76 489.849 1798.37 489.849H1768.23V634.656C1768.23 640.578 1762.85 643.538 1752.08 643.538H1742.66ZM1857.98 645.153C1852.06 645.153 1845.96 644.346 1839.68 642.731C1833.58 641.116 1828.1 639.142 1823.26 636.809C1819.49 635.015 1816.26 633.041 1813.57 630.888C1810.88 628.555 1809.53 626.043 1809.53 623.351C1809.53 621.557 1809.89 618.865 1810.61 615.277C1811.33 611.508 1812.49 608.009 1814.11 604.779C1815.9 601.55 1818.06 599.935 1820.57 599.935C1822.18 599.935 1824.78 600.832 1828.37 602.626C1832.14 604.421 1836.45 606.215 1841.29 608.009C1846.32 609.804 1851.61 610.701 1857.17 610.701C1862.02 610.701 1866.5 609.535 1870.63 607.202C1874.94 604.69 1877.09 599.576 1877.09 591.86C1877.09 586.836 1875.83 582.708 1873.32 579.478C1870.99 576.249 1867.76 573.378 1863.63 570.865C1859.69 568.353 1855.38 565.841 1850.71 563.329C1842.46 558.664 1835.46 553.819 1829.72 548.794C1823.98 543.77 1819.58 537.938 1816.53 531.299C1813.48 524.48 1811.95 516.226 1811.95 506.536C1811.95 495.232 1814.38 485.542 1819.22 477.467C1824.25 469.393 1830.98 463.202 1839.41 458.895C1848.02 454.589 1857.71 452.435 1868.48 452.435C1874.58 452.435 1880.86 453.153 1887.32 454.589C1893.78 456.024 1899.25 458.178 1903.74 461.049C1905.35 462.125 1907.06 463.471 1908.85 465.086C1910.65 466.701 1911.54 468.675 1911.54 471.007C1911.54 473.52 1911.18 476.66 1910.47 480.428C1909.75 484.017 1908.67 487.247 1907.24 490.118C1905.8 492.989 1904.01 494.424 1901.85 494.424C1900.42 494.424 1898.09 493.796 1894.86 492.54C1891.63 491.284 1887.95 490.028 1883.82 488.772C1879.69 487.516 1875.66 486.888 1871.71 486.888C1865.97 486.888 1861.57 487.875 1858.52 489.849C1855.65 491.822 1853.67 494.155 1852.6 496.847C1851.7 499.359 1851.25 501.781 1851.25 504.114C1851.25 509.497 1852.69 513.804 1855.56 517.034C1858.61 520.264 1862.47 523.045 1867.13 525.378C1871.8 527.71 1876.64 530.312 1881.67 533.183C1889.56 537.669 1896.02 542.424 1901.05 547.449C1906.25 552.473 1910.11 558.305 1912.62 564.944C1915.31 571.404 1916.66 579.389 1916.66 588.899C1916.66 598.589 1914.59 607.74 1910.47 616.353C1906.34 624.787 1899.97 631.695 1891.36 637.079C1882.74 642.462 1871.62 645.153 1857.98 645.153Z" fill="#F2E8CF" fill-opacity="0.1"/>
<path d="M29.6075 862.538C18.8411 862.538 13.4579 859.578 13.4579 853.656V681.933C13.4579 676.011 18.8411 673.05 29.6075 673.05H37.6822C44.3215 673.05 48.8972 673.589 51.4094 674.665C54.1009 675.742 56.0748 677.716 57.3309 680.587L84.2467 741.417C85.6823 744.826 86.8486 748.056 87.7458 751.107C88.643 754.157 89.4505 756.938 90.1682 759.45C90.7066 756.938 91.3346 754.157 92.0523 751.107C92.9495 748.056 94.2056 744.826 95.8206 741.417L123.006 680.587C124.262 677.716 126.146 675.742 128.658 674.665C131.35 673.589 136.015 673.05 142.654 673.05H150.729C161.495 673.05 166.879 676.011 166.879 681.933V853.656C166.879 859.578 161.495 862.538 150.729 862.538H144.269C133.503 862.538 128.12 859.578 128.12 853.656V774.254C128.12 771.742 128.209 769.23 128.389 766.718C128.568 764.206 128.927 761.783 129.465 759.45L128.389 759.181C127.671 761.335 126.774 763.488 125.697 765.641C124.8 767.615 123.903 769.678 123.006 771.832L107.933 806.284C105.959 810.591 100.755 812.744 92.3215 812.744H87.7458C78.9533 812.744 73.5701 810.591 71.5963 806.284L57.3309 771.832C56.6131 769.858 55.8056 767.794 54.9084 765.641C54.0112 763.488 53.114 761.335 52.2168 759.181L51.1402 759.45C51.4991 761.783 51.7682 764.206 51.9477 766.718C52.1271 769.23 52.2168 771.742 52.2168 774.254V853.656C52.2168 859.578 46.8337 862.538 36.0673 862.538H29.6075ZM190.813 862.538C186.686 862.538 183.725 861.91 181.93 860.654C180.136 859.398 179.239 857.873 179.239 856.079C179.239 855.361 179.329 854.643 179.508 853.925C179.508 853.028 179.777 851.413 180.315 849.08L219.074 683.278C219.972 679.331 221.856 676.639 224.727 675.204C227.598 673.768 231.366 673.05 236.031 673.05H256.218C261.243 673.05 265.101 673.768 267.792 675.204C270.663 676.639 272.547 679.331 273.444 683.278L312.203 849.08C312.742 851.413 313.011 853.028 313.011 853.925C313.19 854.643 313.28 855.361 313.28 856.079C313.28 857.873 312.383 859.398 310.588 860.654C308.794 861.91 305.833 862.538 301.706 862.538H287.441C283.672 862.538 280.443 862.09 277.751 861.193C275.059 860.295 273.444 858.411 272.906 855.54L266.985 824.049H225.534L219.613 855.54C219.074 858.411 217.459 860.295 214.768 861.193C212.076 862.09 208.936 862.538 205.347 862.538H190.813ZM241.953 734.15L231.456 791.211H260.525L249.758 734.15C249.041 730.74 248.413 727.331 247.874 723.921C247.336 720.512 246.887 717.103 246.529 713.693H245.183C244.824 717.103 244.375 720.512 243.837 723.921C243.299 727.331 242.671 730.74 241.953 734.15ZM341.874 862.538C331.108 862.538 325.724 859.578 325.724 853.656V681.933C325.724 676.011 331.108 673.05 341.874 673.05H351.294C362.061 673.05 367.444 676.011 367.444 681.933V853.656C367.444 859.578 362.061 862.538 351.294 862.538H341.874ZM410.478 862.538C399.711 862.538 394.328 859.578 394.328 853.656V681.933C394.328 676.011 399.711 673.05 410.478 673.05H419.629C425.73 673.05 430.216 673.678 433.087 674.935C435.958 676.191 438.201 678.523 439.816 681.933L481.805 765.641C482.702 767.615 483.689 770.037 484.766 772.908C485.842 775.779 486.829 778.65 487.726 781.521L489.072 781.252C488.713 778.202 488.354 775.151 487.996 772.101C487.637 769.05 487.457 766 487.457 762.95V681.933C487.457 676.011 492.84 673.05 503.607 673.05H510.067C520.833 673.05 526.216 676.011 526.216 681.933V853.656C526.216 859.578 520.833 862.538 510.067 862.538H500.915C494.994 862.538 490.597 861.91 487.726 860.654C484.855 859.398 482.612 857.065 480.997 853.656L438.74 768.602C437.842 766.628 436.855 764.206 435.779 761.335C434.702 758.464 433.715 755.593 432.818 752.721L431.472 752.991C431.831 756.041 432.19 759.092 432.549 762.142C432.908 765.193 433.087 768.243 433.087 771.293V853.656C433.087 859.578 427.704 862.538 416.938 862.538H410.478ZM606.039 862.538C595.272 862.538 589.889 859.578 589.889 853.656V681.933C589.889 676.011 595.272 673.05 606.039 673.05H615.459C626.226 673.05 631.609 676.011 631.609 681.933V853.656C631.609 859.578 626.226 862.538 615.459 862.538H606.039ZM674.643 862.538C663.876 862.538 658.493 859.578 658.493 853.656V681.933C658.493 676.011 663.876 673.05 674.643 673.05H683.794C689.895 673.05 694.381 673.678 697.252 674.935C700.123 676.191 702.366 678.523 703.981 681.933L745.97 765.641C746.867 767.615 747.854 770.037 748.93 772.908C750.007 775.779 750.994 778.65 751.891 781.521L753.237 781.252C752.878 778.202 752.519 775.151 752.16 772.101C751.801 769.05 751.622 766 751.622 762.95V681.933C751.622 676.011 757.005 673.05 767.772 673.05H774.231C784.998 673.05 790.381 676.011 790.381 681.933V853.656C790.381 859.578 784.998 862.538 774.231 862.538H765.08C759.158 862.538 754.762 861.91 751.891 860.654C749.02 859.398 746.777 857.065 745.162 853.656L702.904 768.602C702.007 766.628 701.02 764.206 699.944 761.335C698.867 758.464 697.88 755.593 696.983 752.721L695.637 752.991C695.996 756.041 696.355 759.092 696.714 762.142C697.072 765.193 697.252 768.243 697.252 771.293V853.656C697.252 859.578 691.869 862.538 681.102 862.538H674.643ZM886.429 864.153C860.948 864.153 842.466 856.348 830.982 840.736C819.498 824.946 813.756 800.452 813.756 767.256C813.756 735.136 820.036 711.181 832.597 695.391C845.158 679.421 864.716 671.435 891.273 671.435C897.016 671.435 902.399 671.794 907.423 672.512C912.447 673.05 916.126 673.678 918.459 674.396C921.688 675.293 923.842 676.639 924.918 678.434C926.174 680.049 926.802 682.292 926.802 685.163C926.802 688.572 926.354 692.25 925.457 696.198C924.739 699.966 923.662 703.286 922.227 706.157C920.791 708.849 918.907 710.194 916.574 710.194C914.78 710.194 911.819 709.835 907.692 709.118C903.565 708.221 898.72 707.772 893.158 707.772C880.417 707.772 871.176 712.527 865.434 722.037C859.692 731.368 856.821 746.531 856.821 767.525C856.821 782.778 857.898 794.89 860.051 803.862C862.204 812.834 865.793 819.293 870.817 823.241C875.842 827.009 882.571 828.893 891.004 828.893C893.158 828.893 895.849 828.714 899.079 828.355V786.366H884.814C879.43 786.366 876.739 781.88 876.739 772.908V765.103C876.739 756.131 879.43 751.645 884.814 751.645H928.956C935.595 751.645 938.915 755.234 938.915 762.411V842.621C938.915 847.286 936.133 851.054 930.571 853.925C925.008 856.796 918.459 859.219 910.922 861.193C903.386 863.166 895.221 864.153 886.429 864.153ZM976.132 862.538C965.366 862.538 959.983 859.578 959.983 853.656V684.355C959.983 677.178 963.571 673.589 970.749 673.589H1016.51C1036.24 673.589 1050.87 678.434 1060.38 688.123C1070.07 697.634 1074.91 712.527 1074.91 732.804C1074.91 741.417 1073.39 748.864 1070.34 755.144C1067.47 761.245 1063.79 766.09 1059.3 769.678C1054.82 773.088 1050.06 774.972 1045.04 775.331V776.407C1048.63 777.664 1051.95 780.086 1055 783.675C1058.23 787.084 1060.47 791.032 1061.72 795.518L1078.14 849.35C1078.86 851.503 1079.22 853.566 1079.22 855.54C1079.22 858.411 1078.05 860.295 1075.72 861.193C1073.57 862.09 1069.35 862.538 1063.07 862.538H1053.65C1049.34 862.538 1045.75 862 1042.88 860.923C1040.01 859.847 1038.22 857.873 1037.5 855.002L1025.12 805.207C1023.86 800.004 1021.98 796.505 1019.47 794.71C1017.13 792.916 1013.37 792.019 1008.16 792.019H1001.7V853.656C1001.7 859.578 996.319 862.538 985.553 862.538H976.132ZM1001.7 756.759H1016.51C1023.32 756.759 1027.99 754.875 1030.5 751.107C1033.19 747.338 1034.54 741.237 1034.54 732.804C1034.54 724.37 1033.19 718.269 1030.5 714.501C1027.99 710.733 1023.32 708.849 1016.51 708.849H1001.7V756.759ZM1104.52 862C1097.88 862 1094.56 858.411 1094.56 851.234V684.355C1094.56 677.178 1097.88 673.589 1104.52 673.589H1183.65C1189.04 673.589 1191.73 678.075 1191.73 687.047V695.391C1191.73 704.363 1189.04 708.849 1183.65 708.849H1136.28V747.877H1178.54C1183.74 747.877 1186.35 752.363 1186.35 761.335V769.678C1186.35 778.65 1183.74 783.136 1178.54 783.136H1136.28V826.74H1183.65C1189.04 826.74 1191.73 831.226 1191.73 840.198V848.542C1191.73 857.514 1189.04 862 1183.65 862H1104.52ZM1219.12 862C1212.48 862 1209.16 858.411 1209.16 851.234V684.355C1209.16 677.178 1212.48 673.589 1219.12 673.589H1267.57C1291.8 673.589 1309.56 681.215 1320.87 696.467C1332.35 711.72 1338.09 735.495 1338.09 767.794C1338.09 800.093 1332.35 823.869 1320.87 839.121C1309.56 854.374 1291.8 862 1267.57 862H1219.12ZM1250.88 826.74H1267.84C1277.89 826.74 1284.98 822.164 1289.11 813.013C1293.41 803.862 1295.56 788.789 1295.56 767.794C1295.56 746.8 1293.41 731.727 1289.11 722.576C1284.98 713.424 1277.89 708.849 1267.84 708.849H1250.88V826.74ZM1375.93 862.538C1365.16 862.538 1359.78 859.578 1359.78 853.656V681.933C1359.78 676.011 1365.16 673.05 1375.93 673.05H1385.35C1396.11 673.05 1401.5 676.011 1401.5 681.933V853.656C1401.5 859.578 1396.11 862.538 1385.35 862.538H1375.93ZM1438.34 862C1431.7 862 1428.38 858.411 1428.38 851.234V684.355C1428.38 677.178 1431.7 673.589 1438.34 673.589H1517.47C1522.86 673.589 1525.55 678.075 1525.55 687.047V695.391C1525.55 704.363 1522.86 708.849 1517.47 708.849H1470.1V747.877H1512.36C1517.56 747.877 1520.17 752.363 1520.17 761.335V769.678C1520.17 778.65 1517.56 783.136 1512.36 783.136H1470.1V826.74H1517.47C1522.86 826.74 1525.55 831.226 1525.55 840.198V848.542C1525.55 857.514 1522.86 862 1517.47 862H1438.34ZM1559.13 862.538C1548.37 862.538 1542.98 859.578 1542.98 853.656V681.933C1542.98 676.011 1548.37 673.05 1559.13 673.05H1568.29C1574.39 673.05 1578.87 673.678 1581.74 674.935C1584.61 676.191 1586.86 678.523 1588.47 681.933L1630.46 765.641C1631.36 767.615 1632.35 770.037 1633.42 772.908C1634.5 775.779 1635.49 778.65 1636.38 781.521L1637.73 781.252C1637.37 778.202 1637.01 775.151 1636.65 772.101C1636.29 769.05 1636.11 766 1636.11 762.95V681.933C1636.11 676.011 1641.5 673.05 1652.26 673.05H1658.72C1669.49 673.05 1674.87 676.011 1674.87 681.933V853.656C1674.87 859.578 1669.49 862.538 1658.72 862.538H1649.57C1643.65 862.538 1639.25 861.91 1636.38 860.654C1633.51 859.398 1631.27 857.065 1629.65 853.656L1587.4 768.602C1586.5 766.628 1585.51 764.206 1584.44 761.335C1583.36 758.464 1582.37 755.593 1581.47 752.721L1580.13 752.991C1580.49 756.041 1580.85 759.092 1581.21 762.142C1581.56 765.193 1581.74 768.243 1581.74 771.293V853.656C1581.74 859.578 1576.36 862.538 1565.59 862.538H1559.13ZM1742.66 862.538C1731.89 862.538 1726.51 859.578 1726.51 853.656V708.849H1696.36C1690.98 708.849 1688.29 704.363 1688.29 695.391V687.047C1688.29 678.075 1690.98 673.589 1696.36 673.589H1798.37C1803.76 673.589 1806.45 678.075 1806.45 687.047V695.391C1806.45 704.363 1803.76 708.849 1798.37 708.849H1768.23V853.656C1768.23 859.578 1762.85 862.538 1752.08 862.538H1742.66ZM1857.98 864.153C1852.06 864.153 1845.96 863.346 1839.68 861.731C1833.58 860.116 1828.1 858.142 1823.26 855.809C1819.49 854.015 1816.26 852.041 1813.57 849.888C1810.88 847.555 1809.53 845.043 1809.53 842.351C1809.53 840.557 1809.89 837.865 1810.61 834.277C1811.33 830.508 1812.49 827.009 1814.11 823.779C1815.9 820.55 1818.06 818.935 1820.57 818.935C1822.18 818.935 1824.78 819.832 1828.37 821.626C1832.14 823.421 1836.45 825.215 1841.29 827.009C1846.32 828.804 1851.61 829.701 1857.17 829.701C1862.02 829.701 1866.5 828.535 1870.63 826.202C1874.94 823.69 1877.09 818.576 1877.09 810.86C1877.09 805.836 1875.83 801.708 1873.32 798.478C1870.99 795.249 1867.76 792.378 1863.63 789.865C1859.69 787.353 1855.38 784.841 1850.71 782.329C1842.46 777.664 1835.46 772.819 1829.72 767.794C1823.98 762.77 1819.58 756.938 1816.53 750.299C1813.48 743.48 1811.95 735.226 1811.95 725.536C1811.95 714.232 1814.38 704.542 1819.22 696.467C1824.25 688.393 1830.98 682.202 1839.41 677.895C1848.02 673.589 1857.71 671.435 1868.48 671.435C1874.58 671.435 1880.86 672.153 1887.32 673.589C1893.78 675.024 1899.25 677.178 1903.74 680.049C1905.35 681.125 1907.06 682.471 1908.85 684.086C1910.65 685.701 1911.54 687.675 1911.54 690.007C1911.54 692.52 1911.18 695.66 1910.47 699.428C1909.75 703.017 1908.67 706.247 1907.24 709.118C1905.8 711.989 1904.01 713.424 1901.85 713.424C1900.42 713.424 1898.09 712.796 1894.86 711.54C1891.63 710.284 1887.95 709.028 1883.82 707.772C1879.69 706.516 1875.66 705.888 1871.71 705.888C1865.97 705.888 1861.57 706.875 1858.52 708.849C1855.65 710.822 1853.67 713.155 1852.6 715.847C1851.7 718.359 1851.25 720.781 1851.25 723.114C1851.25 728.497 1852.69 732.804 1855.56 736.034C1858.61 739.264 1862.47 742.045 1867.13 744.378C1871.8 746.71 1876.64 749.312 1881.67 752.183C1889.56 756.669 1896.02 761.424 1901.05 766.449C1906.25 771.473 1910.11 777.305 1912.62 783.944C1915.31 790.404 1916.66 798.389 1916.66 807.899C1916.66 817.589 1914.59 826.74 1910.47 835.353C1906.34 843.787 1899.97 850.695 1891.36 856.079C1882.74 861.462 1871.62 864.153 1857.98 864.153Z" fill="#F2E8CF" fill-opacity="0.1"/>
<path d="M29.6075 1081.54C18.8411 1081.54 13.4579 1078.58 13.4579 1072.66V900.933C13.4579 895.011 18.8411 892.05 29.6075 892.05H37.6822C44.3215 892.05 48.8972 892.589 51.4094 893.665C54.1009 894.742 56.0748 896.716 57.3309 899.587L84.2467 960.417C85.6823 963.826 86.8486 967.056 87.7458 970.107C88.643 973.157 89.4505 975.938 90.1682 978.45C90.7066 975.938 91.3346 973.157 92.0523 970.107C92.9495 967.056 94.2056 963.826 95.8206 960.417L123.006 899.587C124.262 896.716 126.146 894.742 128.658 893.665C131.35 892.589 136.015 892.05 142.654 892.05H150.729C161.495 892.05 166.879 895.011 166.879 900.933V1072.66C166.879 1078.58 161.495 1081.54 150.729 1081.54H144.269C133.503 1081.54 128.12 1078.58 128.12 1072.66V993.254C128.12 990.742 128.209 988.23 128.389 985.718C128.568 983.206 128.927 980.783 129.465 978.45L128.389 978.181C127.671 980.335 126.774 982.488 125.697 984.641C124.8 986.615 123.903 988.678 123.006 990.832L107.933 1025.28C105.959 1029.59 100.755 1031.74 92.3215 1031.74H87.7458C78.9533 1031.74 73.5701 1029.59 71.5963 1025.28L57.3309 990.832C56.6131 988.858 55.8056 986.794 54.9084 984.641C54.0112 982.488 53.114 980.335 52.2168 978.181L51.1402 978.45C51.4991 980.783 51.7682 983.206 51.9477 985.718C52.1271 988.23 52.2168 990.742 52.2168 993.254V1072.66C52.2168 1078.58 46.8337 1081.54 36.0673 1081.54H29.6075ZM190.813 1081.54C186.686 1081.54 183.725 1080.91 181.93 1079.65C180.136 1078.4 179.239 1076.87 179.239 1075.08C179.239 1074.36 179.329 1073.64 179.508 1072.93C179.508 1072.03 179.777 1070.41 180.315 1068.08L219.074 902.278C219.972 898.331 221.856 895.639 224.727 894.204C227.598 892.768 231.366 892.05 236.031 892.05H256.218C261.243 892.05 265.101 892.768 267.792 894.204C270.663 895.639 272.547 898.331 273.444 902.278L312.203 1068.08C312.742 1070.41 313.011 1072.03 313.011 1072.93C313.19 1073.64 313.28 1074.36 313.28 1075.08C313.28 1076.87 312.383 1078.4 310.588 1079.65C308.794 1080.91 305.833 1081.54 301.706 1081.54H287.441C283.672 1081.54 280.443 1081.09 277.751 1080.19C275.059 1079.3 273.444 1077.41 272.906 1074.54L266.985 1043.05H225.534L219.613 1074.54C219.074 1077.41 217.459 1079.3 214.768 1080.19C212.076 1081.09 208.936 1081.54 205.347 1081.54H190.813ZM241.953 953.15L231.456 1010.21H260.525L249.758 953.15C249.041 949.74 248.413 946.331 247.874 942.921C247.336 939.512 246.887 936.103 246.529 932.693H245.183C244.824 936.103 244.375 939.512 243.837 942.921C243.299 946.331 242.671 949.74 241.953 953.15ZM341.874 1081.54C331.108 1081.54 325.724 1078.58 325.724 1072.66V900.933C325.724 895.011 331.108 892.05 341.874 892.05H351.294C362.061 892.05 367.444 895.011 367.444 900.933V1072.66C367.444 1078.58 362.061 1081.54 351.294 1081.54H341.874ZM410.478 1081.54C399.711 1081.54 394.328 1078.58 394.328 1072.66V900.933C394.328 895.011 399.711 892.05 410.478 892.05H419.629C425.73 892.05 430.216 892.678 433.087 893.935C435.958 895.191 438.201 897.523 439.816 900.933L481.805 984.641C482.702 986.615 483.689 989.037 484.766 991.908C485.842 994.779 486.829 997.65 487.726 1000.52L489.072 1000.25C488.713 997.202 488.354 994.151 487.996 991.101C487.637 988.05 487.457 985 487.457 981.95V900.933C487.457 895.011 492.84 892.05 503.607 892.05H510.067C520.833 892.05 526.216 895.011 526.216 900.933V1072.66C526.216 1078.58 520.833 1081.54 510.067 1081.54H500.915C494.994 1081.54 490.597 1080.91 487.726 1079.65C484.855 1078.4 482.612 1076.07 480.997 1072.66L438.74 987.602C437.842 985.628 436.855 983.206 435.779 980.335C434.702 977.464 433.715 974.593 432.818 971.721L431.472 971.991C431.831 975.041 432.19 978.092 432.549 981.142C432.908 984.193 433.087 987.243 433.087 990.293V1072.66C433.087 1078.58 427.704 1081.54 416.938 1081.54H410.478ZM606.039 1081.54C595.272 1081.54 589.889 1078.58 589.889 1072.66V900.933C589.889 895.011 595.272 892.05 606.039 892.05H615.459C626.226 892.05 631.609 895.011 631.609 900.933V1072.66C631.609 1078.58 626.226 1081.54 615.459 1081.54H606.039ZM674.643 1081.54C663.876 1081.54 658.493 1078.58 658.493 1072.66V900.933C658.493 895.011 663.876 892.05 674.643 892.05H683.794C689.895 892.05 694.381 892.678 697.252 893.935C700.123 895.191 702.366 897.523 703.981 900.933L745.97 984.641C746.867 986.615 747.854 989.037 748.93 991.908C750.007 994.779 750.994 997.65 751.891 1000.52L753.237 1000.25C752.878 997.202 752.519 994.151 752.16 991.101C751.801 988.05 751.622 985 751.622 981.95V900.933C751.622 895.011 757.005 892.05 767.772 892.05H774.231C784.998 892.05 790.381 895.011 790.381 900.933V1072.66C790.381 1078.58 784.998 1081.54 774.231 1081.54H765.08C759.158 1081.54 754.762 1080.91 751.891 1079.65C749.02 1078.4 746.777 1076.07 745.162 1072.66L702.904 987.602C702.007 985.628 701.02 983.206 699.944 980.335C698.867 977.464 697.88 974.593 696.983 971.721L695.637 971.991C695.996 975.041 696.355 978.092 696.714 981.142C697.072 984.193 697.252 987.243 697.252 990.293V1072.66C697.252 1078.58 691.869 1081.54 681.102 1081.54H674.643ZM886.429 1083.15C860.948 1083.15 842.466 1075.35 830.982 1059.74C819.498 1043.95 813.756 1019.45 813.756 986.256C813.756 954.136 820.036 930.181 832.597 914.391C845.158 898.421 864.716 890.435 891.273 890.435C897.016 890.435 902.399 890.794 907.423 891.512C912.447 892.05 916.126 892.678 918.459 893.396C921.688 894.293 923.842 895.639 924.918 897.434C926.174 899.049 926.802 901.292 926.802 904.163C926.802 907.572 926.354 911.25 925.457 915.198C924.739 918.966 923.662 922.286 922.227 925.157C920.791 927.849 918.907 929.194 916.574 929.194C914.78 929.194 911.819 928.835 907.692 928.118C903.565 927.221 898.72 926.772 893.158 926.772C880.417 926.772 871.176 931.527 865.434 941.037C859.692 950.368 856.821 965.531 856.821 986.525C856.821 1001.78 857.898 1013.89 860.051 1022.86C862.204 1031.83 865.793 1038.29 870.817 1042.24C875.842 1046.01 882.571 1047.89 891.004 1047.89C893.158 1047.89 895.849 1047.71 899.079 1047.36V1005.37H884.814C879.43 1005.37 876.739 1000.88 876.739 991.908V984.103C876.739 975.131 879.43 970.645 884.814 970.645H928.956C935.595 970.645 938.915 974.234 938.915 981.411V1061.62C938.915 1066.29 936.133 1070.05 930.571 1072.93C925.008 1075.8 918.459 1078.22 910.922 1080.19C903.386 1082.17 895.221 1083.15 886.429 1083.15ZM976.132 1081.54C965.366 1081.54 959.983 1078.58 959.983 1072.66V903.355C959.983 896.178 963.571 892.589 970.749 892.589H1016.51C1036.24 892.589 1050.87 897.434 1060.38 907.123C1070.07 916.634 1074.91 931.527 1074.91 951.804C1074.91 960.417 1073.39 967.864 1070.34 974.144C1067.47 980.245 1063.79 985.09 1059.3 988.678C1054.82 992.088 1050.06 993.972 1045.04 994.331V995.407C1048.63 996.664 1051.95 999.086 1055 1002.67C1058.23 1006.08 1060.47 1010.03 1061.72 1014.52L1078.14 1068.35C1078.86 1070.5 1079.22 1072.57 1079.22 1074.54C1079.22 1077.41 1078.05 1079.3 1075.72 1080.19C1073.57 1081.09 1069.35 1081.54 1063.07 1081.54H1053.65C1049.34 1081.54 1045.75 1081 1042.88 1079.92C1040.01 1078.85 1038.22 1076.87 1037.5 1074L1025.12 1024.21C1023.86 1019 1021.98 1015.5 1019.47 1013.71C1017.13 1011.92 1013.37 1011.02 1008.16 1011.02H1001.7V1072.66C1001.7 1078.58 996.319 1081.54 985.553 1081.54H976.132ZM1001.7 975.759H1016.51C1023.32 975.759 1027.99 973.875 1030.5 970.107C1033.19 966.338 1034.54 960.237 1034.54 951.804C1034.54 943.37 1033.19 937.269 1030.5 933.501C1027.99 929.733 1023.32 927.849 1016.51 927.849H1001.7V975.759ZM1104.52 1081C1097.88 1081 1094.56 1077.41 1094.56 1070.23V903.355C1094.56 896.178 1097.88 892.589 1104.52 892.589H1183.65C1189.04 892.589 1191.73 897.075 1191.73 906.047V914.391C1191.73 923.363 1189.04 927.849 1183.65 927.849H1136.28V966.877H1178.54C1183.74 966.877 1186.35 971.363 1186.35 980.335V988.678C1186.35 997.65 1183.74 1002.14 1178.54 1002.14H1136.28V1045.74H1183.65C1189.04 1045.74 1191.73 1050.23 1191.73 1059.2V1067.54C1191.73 1076.51 1189.04 1081 1183.65 1081H1104.52ZM1219.12 1081C1212.48 1081 1209.16 1077.41 1209.16 1070.23V903.355C1209.16 896.178 1212.48 892.589 1219.12 892.589H1267.57C1291.8 892.589 1309.56 900.215 1320.87 915.467C1332.35 930.72 1338.09 954.495 1338.09 986.794C1338.09 1019.09 1332.35 1042.87 1320.87 1058.12C1309.56 1073.37 1291.8 1081 1267.57 1081H1219.12ZM1250.88 1045.74H1267.84C1277.89 1045.74 1284.98 1041.16 1289.11 1032.01C1293.41 1022.86 1295.56 1007.79 1295.56 986.794C1295.56 965.8 1293.41 950.727 1289.11 941.576C1284.98 932.424 1277.89 927.849 1267.84 927.849H1250.88V1045.74ZM1375.93 1081.54C1365.16 1081.54 1359.78 1078.58 1359.78 1072.66V900.933C1359.78 895.011 1365.16 892.05 1375.93 892.05H1385.35C1396.11 892.05 1401.5 895.011 1401.5 900.933V1072.66C1401.5 1078.58 1396.11 1081.54 1385.35 1081.54H1375.93ZM1438.34 1081C1431.7 1081 1428.38 1077.41 1428.38 1070.23V903.355C1428.38 896.178 1431.7 892.589 1438.34 892.589H1517.47C1522.86 892.589 1525.55 897.075 1525.55 906.047V914.391C1525.55 923.363 1522.86 927.849 1517.47 927.849H1470.1V966.877H1512.36C1517.56 966.877 1520.17 971.363 1520.17 980.335V988.678C1520.17 997.65 1517.56 1002.14 1512.36 1002.14H1470.1V1045.74H1517.47C1522.86 1045.74 1525.55 1050.23 1525.55 1059.2V1067.54C1525.55 1076.51 1522.86 1081 1517.47 1081H1438.34ZM1559.13 1081.54C1548.37 1081.54 1542.98 1078.58 1542.98 1072.66V900.933C1542.98 895.011 1548.37 892.05 1559.13 892.05H1568.29C1574.39 892.05 1578.87 892.678 1581.74 893.935C1584.61 895.191 1586.86 897.523 1588.47 900.933L1630.46 984.641C1631.36 986.615 1632.35 989.037 1633.42 991.908C1634.5 994.779 1635.49 997.65 1636.38 1000.52L1637.73 1000.25C1637.37 997.202 1637.01 994.151 1636.65 991.101C1636.29 988.05 1636.11 985 1636.11 981.95V900.933C1636.11 895.011 1641.5 892.05 1652.26 892.05H1658.72C1669.49 892.05 1674.87 895.011 1674.87 900.933V1072.66C1674.87 1078.58 1669.49 1081.54 1658.72 1081.54H1649.57C1643.65 1081.54 1639.25 1080.91 1636.38 1079.65C1633.51 1078.4 1631.27 1076.07 1629.65 1072.66L1587.4 987.602C1586.5 985.628 1585.51 983.206 1584.44 980.335C1583.36 977.464 1582.37 974.593 1581.47 971.721L1580.13 971.991C1580.49 975.041 1580.85 978.092 1581.21 981.142C1581.56 984.193 1581.74 987.243 1581.74 990.293V1072.66C1581.74 1078.58 1576.36 1081.54 1565.59 1081.54H1559.13ZM1742.66 1081.54C1731.89 1081.54 1726.51 1078.58 1726.51 1072.66V927.849H1696.36C1690.98 927.849 1688.29 923.363 1688.29 914.391V906.047C1688.29 897.075 1690.98 892.589 1696.36 892.589H1798.37C1803.76 892.589 1806.45 897.075 1806.45 906.047V914.391C1806.45 923.363 1803.76 927.849 1798.37 927.849H1768.23V1072.66C1768.23 1078.58 1762.85 1081.54 1752.08 1081.54H1742.66ZM1857.98 1083.15C1852.06 1083.15 1845.96 1082.35 1839.68 1080.73C1833.58 1079.12 1828.1 1077.14 1823.26 1074.81C1819.49 1073.01 1816.26 1071.04 1813.57 1068.89C1810.88 1066.56 1809.53 1064.04 1809.53 1061.35C1809.53 1059.56 1809.89 1056.87 1810.61 1053.28C1811.33 1049.51 1812.49 1046.01 1814.11 1042.78C1815.9 1039.55 1818.06 1037.93 1820.57 1037.93C1822.18 1037.93 1824.78 1038.83 1828.37 1040.63C1832.14 1042.42 1836.45 1044.21 1841.29 1046.01C1846.32 1047.8 1851.61 1048.7 1857.17 1048.7C1862.02 1048.7 1866.5 1047.53 1870.63 1045.2C1874.94 1042.69 1877.09 1037.58 1877.09 1029.86C1877.09 1024.84 1875.83 1020.71 1873.32 1017.48C1870.99 1014.25 1867.76 1011.38 1863.63 1008.87C1859.69 1006.35 1855.38 1003.84 1850.71 1001.33C1842.46 996.664 1835.46 991.819 1829.72 986.794C1823.98 981.77 1819.58 975.938 1816.53 969.299C1813.48 962.48 1811.95 954.226 1811.95 944.536C1811.95 933.232 1814.38 923.542 1819.22 915.467C1824.25 907.393 1830.98 901.202 1839.41 896.895C1848.02 892.589 1857.71 890.435 1868.48 890.435C1874.58 890.435 1880.86 891.153 1887.32 892.589C1893.78 894.024 1899.25 896.178 1903.74 899.049C1905.35 900.125 1907.06 901.471 1908.85 903.086C1910.65 904.701 1911.54 906.675 1911.54 909.007C1911.54 911.52 1911.18 914.66 1910.47 918.428C1909.75 922.017 1908.67 925.247 1907.24 928.118C1905.8 930.989 1904.01 932.424 1901.85 932.424C1900.42 932.424 1898.09 931.796 1894.86 930.54C1891.63 929.284 1887.95 928.028 1883.82 926.772C1879.69 925.516 1875.66 924.888 1871.71 924.888C1865.97 924.888 1861.57 925.875 1858.52 927.849C1855.65 929.822 1853.67 932.155 1852.6 934.847C1851.7 937.359 1851.25 939.781 1851.25 942.114C1851.25 947.497 1852.69 951.804 1855.56 955.034C1858.61 958.264 1862.47 961.045 1867.13 963.378C1871.8 965.71 1876.64 968.312 1881.67 971.183C1889.56 975.669 1896.02 980.424 1901.05 985.449C1906.25 990.473 1910.11 996.305 1912.62 1002.94C1915.31 1009.4 1916.66 1017.39 1916.66 1026.9C1916.66 1036.59 1914.59 1045.74 1910.47 1054.35C1906.34 1062.79 1899.97 1069.7 1891.36 1075.08C1882.74 1080.46 1871.62 1083.15 1857.98 1083.15Z" fill="#F2E8CF" fill-opacity="0.1"/>
</svg>
